<mxfile host="app.diagrams.net" modified="2021-04-30T06:05:19.313Z" agent="5.0 (Windows NT 6.1; Win64; x64) AppleWebKit/537.36 (KHTML, like Gecko) Chrome/90.0.4430.93 Safari/537.36" etag="j_J08j0UrGLCPkxhEkDH" version="14.6.9" type="github">
  <diagram id="jfhB_eqaBbN24ZW56a9X" name="Page-1">
    <mxGraphModel dx="785" dy="518" grid="1" gridSize="10" guides="1" tooltips="1" connect="1" arrows="1" fold="1" page="1" pageScale="1" pageWidth="827" pageHeight="1169" math="0" shadow="0">
      <root>
        <mxCell id="0" />
        <mxCell id="1" parent="0" />
        <mxCell id="odyXfAEsgWvVZcT5EJoQ-5" value="" style="edgeStyle=orthogonalEdgeStyle;rounded=0;orthogonalLoop=1;jettySize=auto;html=1;" edge="1" parent="1" source="odyXfAEsgWvVZcT5EJoQ-3" target="odyXfAEsgWvVZcT5EJoQ-4">
          <mxGeometry relative="1" as="geometry" />
        </mxCell>
        <mxCell id="odyXfAEsgWvVZcT5EJoQ-3" value="A内容进入详情" style="rounded=1;whiteSpace=wrap;html=1;" vertex="1" parent="1">
          <mxGeometry x="340" y="80" width="90" height="50" as="geometry" />
        </mxCell>
        <mxCell id="odyXfAEsgWvVZcT5EJoQ-15" value="" style="edgeStyle=orthogonalEdgeStyle;rounded=0;orthogonalLoop=1;jettySize=auto;html=1;" edge="1" parent="1" source="odyXfAEsgWvVZcT5EJoQ-4" target="odyXfAEsgWvVZcT5EJoQ-14">
          <mxGeometry relative="1" as="geometry" />
        </mxCell>
        <mxCell id="odyXfAEsgWvVZcT5EJoQ-19" value="" style="edgeStyle=orthogonalEdgeStyle;rounded=0;orthogonalLoop=1;jettySize=auto;html=1;" edge="1" parent="1" source="odyXfAEsgWvVZcT5EJoQ-4" target="odyXfAEsgWvVZcT5EJoQ-18">
          <mxGeometry relative="1" as="geometry" />
        </mxCell>
        <mxCell id="odyXfAEsgWvVZcT5EJoQ-4" value="桥接" style="rounded=1;whiteSpace=wrap;html=1;" vertex="1" parent="1">
          <mxGeometry x="340" y="180" width="90" height="50" as="geometry" />
        </mxCell>
        <mxCell id="odyXfAEsgWvVZcT5EJoQ-6" value="新增按钮" style="text;html=1;align=center;verticalAlign=middle;resizable=0;points=[];autosize=1;strokeColor=none;" vertex="1" parent="1">
          <mxGeometry x="380" y="140" width="60" height="20" as="geometry" />
        </mxCell>
        <mxCell id="odyXfAEsgWvVZcT5EJoQ-31" value="" style="edgeStyle=orthogonalEdgeStyle;rounded=0;orthogonalLoop=1;jettySize=auto;html=1;" edge="1" parent="1" source="odyXfAEsgWvVZcT5EJoQ-14" target="odyXfAEsgWvVZcT5EJoQ-30">
          <mxGeometry relative="1" as="geometry" />
        </mxCell>
        <mxCell id="odyXfAEsgWvVZcT5EJoQ-36" value="" style="edgeStyle=orthogonalEdgeStyle;rounded=0;orthogonalLoop=1;jettySize=auto;html=1;" edge="1" parent="1" source="odyXfAEsgWvVZcT5EJoQ-14" target="odyXfAEsgWvVZcT5EJoQ-35">
          <mxGeometry relative="1" as="geometry" />
        </mxCell>
        <mxCell id="odyXfAEsgWvVZcT5EJoQ-14" value="锚定且未激活" style="rounded=1;whiteSpace=wrap;html=1;" vertex="1" parent="1">
          <mxGeometry x="340" y="280" width="90" height="50" as="geometry" />
        </mxCell>
        <mxCell id="odyXfAEsgWvVZcT5EJoQ-18" value="逻辑删除status=9" style="rounded=1;whiteSpace=wrap;html=1;" vertex="1" parent="1">
          <mxGeometry x="510" y="180" width="90" height="50" as="geometry" />
        </mxCell>
        <mxCell id="odyXfAEsgWvVZcT5EJoQ-20" value="删除按钮" style="text;html=1;align=center;verticalAlign=middle;resizable=0;points=[];autosize=1;strokeColor=none;" vertex="1" parent="1">
          <mxGeometry x="440" y="180" width="60" height="20" as="geometry" />
        </mxCell>
        <mxCell id="odyXfAEsgWvVZcT5EJoQ-21" value="锚定按钮" style="text;html=1;align=center;verticalAlign=middle;resizable=0;points=[];autosize=1;strokeColor=none;" vertex="1" parent="1">
          <mxGeometry x="380" y="240" width="60" height="20" as="geometry" />
        </mxCell>
        <mxCell id="odyXfAEsgWvVZcT5EJoQ-22" value="" style="endArrow=classic;html=1;entryX=0.013;entryY=0.914;entryDx=0;entryDy=0;entryPerimeter=0;" edge="1" parent="1" target="odyXfAEsgWvVZcT5EJoQ-25">
          <mxGeometry width="50" height="50" relative="1" as="geometry">
            <mxPoint x="470" y="180" as="sourcePoint" />
            <mxPoint x="520" y="130" as="targetPoint" />
          </mxGeometry>
        </mxCell>
        <mxCell id="odyXfAEsgWvVZcT5EJoQ-25" value="只有桥接状态可点" style="text;html=1;align=center;verticalAlign=middle;resizable=0;points=[];autosize=1;strokeColor=none;" vertex="1" parent="1">
          <mxGeometry x="520" y="140" width="110" height="20" as="geometry" />
        </mxCell>
        <mxCell id="odyXfAEsgWvVZcT5EJoQ-27" value="" style="endArrow=classic;html=1;exitX=1.001;exitY=0.605;exitDx=0;exitDy=0;exitPerimeter=0;" edge="1" parent="1" source="odyXfAEsgWvVZcT5EJoQ-21" target="odyXfAEsgWvVZcT5EJoQ-28">
          <mxGeometry width="50" height="50" relative="1" as="geometry">
            <mxPoint x="480" y="310" as="sourcePoint" />
            <mxPoint x="497" y="255" as="targetPoint" />
          </mxGeometry>
        </mxCell>
        <mxCell id="odyXfAEsgWvVZcT5EJoQ-28" value="只有桥接状态可点" style="text;html=1;align=center;verticalAlign=middle;resizable=0;points=[];autosize=1;strokeColor=none;" vertex="1" parent="1">
          <mxGeometry x="500" y="240" width="110" height="20" as="geometry" />
        </mxCell>
        <mxCell id="odyXfAEsgWvVZcT5EJoQ-30" value="锚定且激活" style="rounded=1;whiteSpace=wrap;html=1;" vertex="1" parent="1">
          <mxGeometry x="510" y="280" width="90" height="50" as="geometry" />
        </mxCell>
        <mxCell id="odyXfAEsgWvVZcT5EJoQ-32" value="提交审核" style="text;html=1;align=center;verticalAlign=middle;resizable=0;points=[];autosize=1;strokeColor=none;" vertex="1" parent="1">
          <mxGeometry x="430" y="280" width="60" height="20" as="geometry" />
        </mxCell>
        <mxCell id="odyXfAEsgWvVZcT5EJoQ-33" value="" style="endArrow=classic;html=1;" edge="1" parent="1">
          <mxGeometry width="50" height="50" relative="1" as="geometry">
            <mxPoint x="600" y="310" as="sourcePoint" />
            <mxPoint x="660" y="310" as="targetPoint" />
          </mxGeometry>
        </mxCell>
        <mxCell id="odyXfAEsgWvVZcT5EJoQ-34" value="emc判断B内容可用,&lt;br&gt;已注入,已发布才生成&lt;br&gt;融合数据的json" style="text;html=1;align=center;verticalAlign=middle;resizable=0;points=[];autosize=1;strokeColor=none;" vertex="1" parent="1">
          <mxGeometry x="650" y="280" width="130" height="50" as="geometry" />
        </mxCell>
        <mxCell id="odyXfAEsgWvVZcT5EJoQ-35" value="锚定且未激活" style="rounded=1;whiteSpace=wrap;html=1;" vertex="1" parent="1">
          <mxGeometry x="340" y="380" width="90" height="50" as="geometry" />
        </mxCell>
        <mxCell id="odyXfAEsgWvVZcT5EJoQ-37" value="保存" style="text;html=1;align=center;verticalAlign=middle;resizable=0;points=[];autosize=1;strokeColor=none;" vertex="1" parent="1">
          <mxGeometry x="380" y="340" width="40" height="20" as="geometry" />
        </mxCell>
        <mxCell id="odyXfAEsgWvVZcT5EJoQ-39" value="" style="endArrow=classic;html=1;" edge="1" parent="1">
          <mxGeometry width="50" height="50" relative="1" as="geometry">
            <mxPoint x="430" y="330" as="sourcePoint" />
            <mxPoint x="510" y="390" as="targetPoint" />
          </mxGeometry>
        </mxCell>
        <mxCell id="odyXfAEsgWvVZcT5EJoQ-40" value="" style="endArrow=classic;html=1;" edge="1" parent="1">
          <mxGeometry width="50" height="50" relative="1" as="geometry">
            <mxPoint x="550" y="330" as="sourcePoint" />
            <mxPoint x="510" y="390" as="targetPoint" />
          </mxGeometry>
        </mxCell>
        <mxCell id="odyXfAEsgWvVZcT5EJoQ-44" value="" style="edgeStyle=orthogonalEdgeStyle;rounded=0;orthogonalLoop=1;jettySize=auto;html=1;" edge="1" parent="1" source="odyXfAEsgWvVZcT5EJoQ-41" target="odyXfAEsgWvVZcT5EJoQ-43">
          <mxGeometry relative="1" as="geometry" />
        </mxCell>
        <mxCell id="odyXfAEsgWvVZcT5EJoQ-41" value="锚定待解除" style="rounded=1;whiteSpace=wrap;html=1;" vertex="1" parent="1">
          <mxGeometry x="470" y="390" width="90" height="50" as="geometry" />
        </mxCell>
        <mxCell id="odyXfAEsgWvVZcT5EJoQ-42" value="解除锚定按钮" style="text;html=1;align=center;verticalAlign=middle;resizable=0;points=[];autosize=1;strokeColor=none;" vertex="1" parent="1">
          <mxGeometry x="460" y="350" width="90" height="20" as="geometry" />
        </mxCell>
        <mxCell id="odyXfAEsgWvVZcT5EJoQ-43" value="桥接" style="rounded=1;whiteSpace=wrap;html=1;" vertex="1" parent="1">
          <mxGeometry x="470" y="490" width="90" height="50" as="geometry" />
        </mxCell>
        <mxCell id="odyXfAEsgWvVZcT5EJoQ-47" value="" style="edgeStyle=orthogonalEdgeStyle;rounded=0;orthogonalLoop=1;jettySize=auto;html=1;" edge="1" parent="1" target="odyXfAEsgWvVZcT5EJoQ-46">
          <mxGeometry relative="1" as="geometry">
            <mxPoint x="550" y="360" as="sourcePoint" />
          </mxGeometry>
        </mxCell>
        <mxCell id="odyXfAEsgWvVZcT5EJoQ-45" value="保存或提交审核" style="text;html=1;align=center;verticalAlign=middle;resizable=0;points=[];autosize=1;strokeColor=none;" vertex="1" parent="1">
          <mxGeometry x="470" y="450" width="100" height="20" as="geometry" />
        </mxCell>
        <mxCell id="odyXfAEsgWvVZcT5EJoQ-46" value="只有锚定状态可点" style="text;html=1;align=center;verticalAlign=middle;resizable=0;points=[];autosize=1;strokeColor=none;" vertex="1" parent="1">
          <mxGeometry x="605" y="350" width="110" height="20" as="geometry" />
        </mxCell>
      </root>
    </mxGraphModel>
  </diagram>
</mxfile>
